<svg xmlns="http://www.w3.org/2000/svg" xmlns:xlink="http://www.w3.org/1999/xlink" viewBox="0 0 366 509.69"><defs><style>.cls-1,.cls-5{fill:#ffce1c;}.cls-1,.cls-2,.cls-3,.cls-4,.cls-5{stroke:#000;stroke-miterlimit:10;}.cls-1{stroke-width:11px;}.cls-2{fill:#fff;stroke-width:14px;}.cls-3{fill:#3b484a;}.cls-3,.cls-4,.cls-5{stroke-width:13px;}.cls-4{fill:url(#linear-gradient);}</style><linearGradient id="linear-gradient" x1="183" y1="70.3" x2="183" y2="164.44" gradientUnits="userSpaceOnUse"><stop offset="0" stop-color="#ffce1c"/><stop offset="1" stop-color="#faa330"/></linearGradient></defs><title>Abejorro</title><g id="Layer_2" data-name="Layer 2"><g id="Capa_1" data-name="Capa 1"><polygon class="cls-1" points="138.67 354.38 186.33 491.77 227.33 354.38 138.67 354.38"/><path class="cls-2" d="M359,223.56A266.09,266.09,0,0,0,344,138.09q-3.59-10.15-8-19.75c-18.61-40.86-47.38-73.54-82-92.67a144.49,144.49,0,0,0-142.08,0c-34.65,19.13-63.42,51.8-82,92.67q-4.36,9.58-8,19.75A266.08,266.08,0,0,0,7,223.56c0,1.13,0,2.26,0,3.4a268.93,268.93,0,0,0,11,76.59c24.89,83.72,89.38,143.37,165,143.37s140.14-59.65,165-143.37A268.93,268.93,0,0,0,359,227C359,225.82,359,224.7,359,223.56Z"/><path class="cls-3" d="M18,303.55c24.89,83.72,89.38,143.37,165,143.37s140.14-59.65,165-143.37c-37.43,33.39-97.41,55-165,55S55.4,336.94,18,303.55Z"/><path class="cls-3" d="M344,138.09q-3.59-10.15-8-19.75-3.06,4.55-6.53,8.89c-30.62,38.27-84.8,63.71-146.54,63.71S67.08,165.5,36.46,127.23q-3.47-4.34-6.53-8.89-4.36,9.58-8,19.75A266.08,266.08,0,0,0,7,223.56C43,263,108.35,289.39,183,289.39S323,263,359,223.56A266.09,266.09,0,0,0,344,138.09Z"/><path class="cls-4" d="M254,25.67a144.49,144.49,0,0,0-142.08,0c-34.65,19.13-63.42,51.8-82,92.67q3.06,4.55,6.53,8.89c30.62,38.27,84.8,63.71,146.54,63.71s115.92-25.44,146.54-63.71q3.47-4.34,6.53-8.89C317.46,77.47,288.68,44.8,254,25.67Z"/><path d="M253.83,78.13a7.51,7.51,0,0,0,7.51-7.51V57.8a7.51,7.51,0,1,0-15,0V70.62A7.51,7.51,0,0,0,253.83,78.13Z"/><path d="M112.17,78.13a7.51,7.51,0,0,0,7.51-7.51V57.8a7.51,7.51,0,1,0-15,0V70.62A7.51,7.51,0,0,0,112.17,78.13Z"/><path d="M160.58,49a7.51,7.51,0,0,0,10.6-.71,16.12,16.12,0,0,1,23.65,0,7.51,7.51,0,0,0,11.31-9.89,31.13,31.13,0,0,0-46.27,0A7.51,7.51,0,0,0,160.58,49Z"/><path class="cls-5" d="M359,223.56C323,263,257.65,289.39,183,289.39S43,263,7,223.56c0,1.13,0,2.26,0,3.4a268.93,268.93,0,0,0,11,76.59c37.43,33.39,97.41,55,165,55s127.6-21.64,165-55A268.93,268.93,0,0,0,359,227C359,225.82,359,224.7,359,223.56Z"/></g></g></svg>